<?xml version="1.0" encoding="UTF-8" standalone="no"?>
<svg
   xmlns:dc="http://purl.org/dc/elements/1.1/"
   xmlns:cc="http://creativecommons.org/ns#"
   xmlns:rdf="http://www.w3.org/1999/02/22-rdf-syntax-ns#"
   xmlns:svg="http://www.w3.org/2000/svg"
   xmlns="http://www.w3.org/2000/svg"
   xmlns:sodipodi="http://sodipodi.sourceforge.net/DTD/sodipodi-0.dtd"
   xmlns:inkscape="http://www.inkscape.org/namespaces/inkscape"
   viewBox="0 0 512 512"
   version="1.1"
   id="svg46"
   sodipodi:docname="favicon.svg"
   width="512"
   height="512"
   inkscape:version="0.92.2 (5c3e80d, 2017-08-06)">
  <metadata
     id="metadata52">
    <rdf:RDF>
      <cc:Work
         rdf:about="">
        <dc:format>image/svg+xml</dc:format>
        <dc:type
           rdf:resource="http://purl.org/dc/dcmitype/StillImage" />
        <dc:title></dc:title>
      </cc:Work>
    </rdf:RDF>
  </metadata>
  <defs
     id="defs50" />
  <sodipodi:namedview
     pagecolor="#ffffff"
     bordercolor="#666666"
     borderopacity="1"
     objecttolerance="10"
     gridtolerance="10"
     guidetolerance="10"
     inkscape:pageopacity="0"
     inkscape:pageshadow="2"
     inkscape:window-width="1920"
     inkscape:window-height="1017"
     id="namedview48"
     showgrid="false"
     inkscape:zoom="0.6390625"
     inkscape:cx="616.37746"
     inkscape:cy="336.73718"
     inkscape:window-x="-8"
     inkscape:window-y="-8"
     inkscape:window-maximized="1"
     inkscape:current-layer="svg46" />
  <g
     id="g44"
     style="fill:#000000"
     transform="matrix(47.145616,-18.842106,19.006532,47.55703,-1952.746,201.61532)">
    <path
       d="m 42.254372,13.090053 a 3.7248762,4.5042138 30 0 0 -5.480104,2.036999 3.7248762,4.5042138 30 0 0 0.299639,5.232695 c 0.04398,-0.531929 0.16494,-1.164196 0.512686,-1.744232 0.420595,-0.698242 1.406107,-1.333258 2.364128,-1.984768 0.481073,-0.325755 0.952524,-0.647386 1.333259,-0.9484 0.37936,-0.302388 0.66388,-0.592406 0.772465,-0.797206 0.328504,-0.618522 0.285894,-1.292023 0.210297,-1.786841 a 3.7248762,4.5042138 30 0 0 -0.01375,-0.0082 z m 0.604777,0.460455 c 0.011,0.496192 -0.03711,1.065232 -0.316134,1.594412 -0.182807,0.343624 -0.51406,0.646012 -0.918161,0.966269 -0.404101,0.320257 -0.883799,0.648761 -1.362123,0.974515 -0.959396,0.65151 -1.922915,1.341506 -2.207436,1.814331 -0.409598,0.680374 -0.453582,1.386864 -0.443961,1.902299 a 3.7248762,4.5042138 30 0 0 0.136075,0.09209 3.7248762,4.5042138 30 0 0 5.478729,-2.042497 3.7248762,4.5042138 30 0 0 -0.368364,-5.30142 z"
       id="path34"
       inkscape:connector-curvature="0"
       style="stroke-width:1.37449312" />
  </g>
</svg>
