<svg version="1" xmlns="http://www.w3.org/2000/svg" width="933.333" height="933.333" viewBox="0 0 700.000000 700.000000"><path d="M353.8 36.5c-.2.1-3.4.5-7.3.9C270.9 44 189.6 100.7 141.7 180c-3.2 5.2-6.2 10.2-6.7 11-1.8 2.8-14.5 28.5-16.9 34-8.1 18.8-16.7 46.1-20.7 65.1-1.5 7.4-4.3 25.4-4.9 31.4-.4 3.8-.9 9-1.2 11.5-1.2 11.2-.4 55.1 1.1 64 .3 1.4.8 5.2 1.1 8.5 1 8.8 1.4 11.8 1.9 14 .2 1.1 1.1 6 2.1 11 .9 4.9 2.8 13.3 4.2 18.5 1.4 5.2 2.6 10.2 2.8 11 .6 2.6 9.2 28.3 11 32.5.9 2.2 2.5 5.9 3.6 8.2 1 2.4 1.9 4.6 1.9 4.9 0 .3 3.2 6.9 7.1 14.7 16.2 32 34.2 57.1 57.4 79.8 10.7 10.5 24 21.3 35 28.5 8.4 5.4 27.4 15.9 27.9 15.3.2-.2-1.4-6.6-3.5-14.1s-4-14.9-4.2-16.5c-2.9-16-4.7-28-5.4-33.8-.9-8.9-1-42.1 0-50 .4-3.3.9-8 1.2-10.5 1.8-14.3 9.8-38.1 20.5-60.4 8.4-17.7 26.6-49.7 35.7-62.8 1.8-2.6 3.3-5 3.3-5.2 0-.4 8-12.9 9.7-15.1.5-.6 4.2-6.2 8.3-12.5 4.1-6.3 7.9-12 8.3-12.5 4.2-5.1 61.1-92.4 67.5-103.6 1.1-1.9 4.2-7.2 6.9-11.9 7.1-12.3 14.4-26.3 18.3-35.5 1.8-4.4 3.7-8.5 4.1-9 1.7-2.4 7.9-23.8 8.5-29.6 2-17.3 0-41.7-4.8-58.3-1.1-3.8-2.1-7.6-2.3-8.5-1.6-7.8-21.3-50.8-25-54.4-.8-.8-4.5-1.8-8.2-2.2-6.1-.7-32.9-1.5-33.5-1z"/><path d="M446 54.6c0 .8.5 2.5 1.1 3.6 4.6 8.5 14.6 41.7 16.4 54.3.3 2.2.7 4.7 1 5.5 2.6 9.7 2.7 39.5.1 55-3.7 22.4-17.7 53.2-44.7 98.2-9.7 16.1-13.1 21.4-42.3 65.8-49.9 75.7-55 83.9-73.1 116-14.5 25.9-26.9 53.7-28.9 65-.2 1.4-.7 3.6-1 5-1.4 5.4-1.8 11.2-2.1 30-.3 17.3.1 24.9 1.9 35.5.2 1.6.7 5 1.1 7.5.3 2.5 1 5.8 1.5 7.5.5 1.6 1.1 4.3 1.4 5.9 1.7 9.6 13.7 45.1 16.8 49.2.8 1.1 9.2 2.9 20.4 4.3 6.1.7 32.7.6 39.4-.2 5.2-.7 13.2-1.9 15.5-2.4 1.1-.2 3.1-.6 4.5-.9 1.4-.3 4.3-1 6.5-1.6 2.2-.5 5-1.2 6.1-1.4 4.4-.8 25.7-8.5 34.6-12.6 29.6-13.3 57.7-32.7 82.8-57.2 11.4-11.2 17.1-17.3 23.1-24.6 2.4-3 4.7-5.7 5-6 .3-.3 4-5 8-10.5 39.3-52.9 63-116.2 67.5-180.5 1.2-16.7.5-59.3-.9-61.8-.3-.4-.8-3.9-1.1-7.7-1.1-12.7-5.4-34.3-10.2-51.6-11.5-41.7-29.6-79.4-53.8-111.9-25.5-34.4-57.2-60.7-92.9-77.2-3.3-1.6-3.7-1.6-3.7-.2z"/></svg>